<svg width="120" height="100" viewBox="0 0 120 100" fill="none" xmlns="http://www.w3.org/2000/svg">
<g id="Animatie-4" clip-path="url(#clip0_213_2)">
<path id="ani4--elem1" d="M50.3752 56.7897C53.2455 55.6747 56.2464 58.0849 55.777 61.1281L51.0238 91.9405C50.5544 94.9837 46.9666 96.3776 44.5658 94.4494L20.258 74.9268C17.8573 72.9987 18.4441 69.1946 21.3143 68.0796L50.3752 56.7897Z" fill="#9862B9"/>
<path id="ani4--elem2" d="M75.5903 37.7968C76.1047 34.7608 79.7127 33.4202 82.0847 35.3837L98.0956 48.637C100.468 50.6005 99.8246 54.3954 96.9382 55.4678L77.455 62.7071C74.5686 63.7795 71.6036 61.3252 72.118 58.2893L75.5903 37.7968Z" fill="#0084CF"/>
<path id="ani4--elem3" d="M22.0694 25.1262C19.1718 24.0844 18.4886 20.2965 20.8397 18.308L36.7094 4.8859C39.0604 2.89744 42.6824 4.19974 43.2289 7.23005L46.918 27.6847C47.4646 30.715 44.5257 33.2005 41.6281 32.1587L22.0694 25.1262Z" fill="#008679"/>
</g>
<defs>
<clipPath id="clip0_213_2">
<rect width="120" height="100" fill="white"/>
</clipPath>
</defs>
</svg>
