<svg width="120" height="100" viewBox="0 0 120 100" fill="none" xmlns="http://www.w3.org/2000/svg">
<g id="Animatie-3">
<path id="ani3--raind1" opacity="0.7" d="M65.7115 8.82867L59.5 0L53.2885 8.82867C50.7172 12.4834 52.1392 17.6032 56.266 19.3477C57.2595 19.7677 58.3525 20 59.5 20C60.6475 20 61.7405 19.7677 62.7341 19.3477C66.8608 17.6032 68.2828 12.4834 65.7115 8.82867Z" fill="#0081CF"/>
<path id="ani3--raind2" opacity="0.7" d="M68.282 11.0358L60 0L51.718 11.0358C48.2896 15.6042 50.1856 22.0041 55.688 24.1846C57.0126 24.7096 58.47 25 60 25C61.53 25 62.9874 24.7096 64.3121 24.1846C69.8145 22.0041 71.7104 15.6042 68.282 11.0358Z" fill="#0081CF"/>
<path id="ani3--raind3" opacity="0.7" d="M69.8525 15.4502L59.5 0L49.1475 15.4502C44.862 21.8459 47.232 30.8057 54.11 33.8584C55.7658 34.5935 57.5875 35 59.5 35C61.4125 35 63.2342 34.5935 64.8901 33.8585C71.7681 30.8057 74.1379 21.8459 69.8525 15.4502Z" fill="#0081CF"/>
<rect id="ani3--pool" opacity="0.7" y="86" width="120" height="14" fill="#0081CF"/>
</g>
</svg>
